<svg xmlns="http://www.w3.org/2000/svg" xmlns:xlink="http://www.w3.org/1999/xlink" width="1024" zoomAndPan="magnify" viewBox="0 0 768 767.999994" height="1024" preserveAspectRatio="xMidYMid meet" version="1.2"><defs><clipPath id="6be6623af0"><path d="M 66 96.507812 L 710 96.507812 L 710 671.757812 L 66 671.757812 Z M 66 96.507812 "/></clipPath></defs><g id="627f18c923"><rect x="0" width="768" y="0" height="767.999994" style="fill:#ffffff;fill-opacity:1;stroke:none;"/><rect x="0" width="768" y="0" height="767.999994" style="fill:#ffffff;fill-opacity:1;stroke:none;"/><path style=" stroke:none;fill-rule:evenodd;fill:#f19720;fill-opacity:1;" d="M 477.011719 166.234375 L 514.148438 166.234375 C 523.234375 166.234375 530.621094 173.625 530.621094 182.675781 L 530.621094 206.511719 C 551.402344 210.902344 570.757812 219.074219 587.984375 230.300781 L 604.847656 213.425781 C 611.242188 207.027344 621.710938 207.027344 628.121094 213.425781 L 654.390625 239.757812 C 660.785156 246.15625 660.785156 256.628906 654.390625 263.046875 L 637.527344 279.917969 C 648.746094 297.113281 656.925781 316.484375 661.300781 337.277344 L 685.117188 337.277344 C 694.164062 337.277344 701.589844 344.710938 701.589844 353.761719 L 701.589844 390.953125 C 701.589844 400.003906 694.164062 407.394531 685.117188 407.394531 L 661.300781 407.394531 C 656.910156 428.1875 648.746094 447.597656 637.527344 464.792969 L 654.390625 481.667969 C 660.785156 488.070312 660.785156 498.542969 654.390625 504.957031 L 628.121094 531.242188 C 621.722656 537.644531 611.257812 537.644531 604.847656 531.242188 L 587.984375 514.398438 C 574.746094 523.015625 560.25 529.847656 544.808594 534.519531 L 544.808594 556.582031 L 446.363281 556.582031 L 446.363281 534.535156 C 430.921875 529.878906 416.414062 523.03125 403.191406 514.410156 L 386.328125 531.257812 C 379.929688 537.660156 369.464844 537.660156 363.054688 531.257812 L 336.769531 504.96875 C 330.375 498.570312 330.375 488.097656 336.769531 481.683594 L 353.632812 464.808594 C 342.414062 447.613281 334.234375 428.199219 329.859375 407.410156 L 306.039062 407.410156 C 296.996094 407.410156 289.566406 400.015625 289.566406 390.964844 L 289.566406 353.773438 C 289.566406 344.722656 296.996094 337.289062 306.039062 337.289062 L 329.859375 337.289062 C 334.246094 316.496094 342.414062 297.128906 353.632812 279.933594 L 336.769531 263.058594 C 330.375 256.65625 330.375 246.183594 336.769531 239.769531 L 363.039062 213.441406 C 369.4375 207.039062 379.902344 207.039062 386.3125 213.441406 L 403.175781 230.316406 C 420.402344 219.089844 439.757812 210.902344 460.539062 206.523438 L 460.539062 182.691406 C 460.539062 173.625 467.921875 166.234375 477.011719 166.234375 Z M 477.011719 166.234375 "/><path style=" stroke:none;fill-rule:evenodd;fill:#faa82d;fill-opacity:1;" d="M 477.011719 166.234375 L 514.148438 166.234375 C 523.234375 166.234375 530.621094 173.625 530.621094 182.675781 L 530.621094 206.511719 C 551.402344 210.902344 570.757812 219.074219 587.984375 230.300781 L 604.847656 213.425781 C 611.242188 207.027344 621.710938 207.027344 628.121094 213.425781 L 654.390625 239.757812 C 660.785156 246.15625 660.785156 256.628906 654.390625 263.046875 L 637.527344 279.917969 C 648.746094 297.113281 656.925781 316.484375 661.300781 337.277344 L 685.117188 337.277344 C 694.164062 337.277344 701.589844 344.710938 701.589844 353.761719 L 701.589844 390.953125 C 701.589844 400.003906 694.164062 407.394531 685.117188 407.394531 L 661.300781 407.394531 C 656.910156 428.1875 648.746094 447.597656 637.527344 464.792969 L 651.546875 478.78125 C 637.359375 481.515625 622.742188 482.9375 607.773438 482.9375 C 479.78125 482.9375 376 379.085938 376 251.011719 C 376 236.8125 377.308594 222.910156 379.707031 209.425781 C 382.160156 210.179688 384.402344 211.515625 386.300781 213.414062 L 403.160156 230.289062 C 420.386719 219.0625 439.746094 210.875 460.523438 206.496094 L 460.523438 182.664062 C 460.539062 173.625 467.921875 166.234375 477.011719 166.234375 Z M 477.011719 166.234375 "/><path style=" stroke:none;fill-rule:evenodd;fill:#ffffff;fill-opacity:1;" d="M 495.585938 247.46875 C 564.515625 247.46875 620.386719 303.359375 620.386719 372.347656 C 620.386719 430.695312 580.445312 479.671875 526.441406 493.394531 L 526.441406 556.609375 L 464.730469 556.609375 L 464.730469 493.394531 C 410.730469 479.671875 370.789062 430.695312 370.789062 372.347656 C 370.789062 303.359375 426.644531 247.46875 495.585938 247.46875 Z M 495.585938 247.46875 "/><path style=" stroke:none;fill-rule:evenodd;fill:#34c6f4;fill-opacity:1;" d="M 450.460938 663.320312 L 540.683594 663.320312 C 545.617188 663.320312 549.6875 659.289062 549.6875 654.3125 L 549.6875 609.964844 L 441.445312 609.964844 L 441.445312 654.3125 C 441.457031 659.292969 445.527344 663.320312 450.460938 663.320312 Z M 450.460938 663.320312 "/><path style=" stroke:none;fill-rule:evenodd;fill:#243e90;fill-opacity:1;" d="M 450.460938 663.320312 L 540.683594 663.320312 C 545.617188 663.320312 549.6875 659.289062 549.6875 654.3125 L 549.6875 636.644531 L 441.445312 636.644531 L 441.445312 654.3125 C 441.457031 659.292969 445.527344 663.320312 450.460938 663.320312 Z M 450.460938 663.320312 "/><path style=" stroke:none;fill-rule:evenodd;fill:#34c6f4;fill-opacity:1;" d="M 432.886719 556.597656 L 558.273438 556.597656 C 563.203125 556.597656 567.273438 560.667969 567.273438 565.605469 L 567.273438 600.902344 C 567.273438 605.878906 563.203125 609.953125 558.273438 609.953125 L 432.886719 609.953125 C 427.953125 609.953125 423.886719 605.878906 423.886719 600.902344 L 423.886719 565.605469 C 423.886719 560.667969 427.953125 556.597656 432.886719 556.597656 Z M 432.886719 556.597656 "/><path style=" stroke:none;fill-rule:evenodd;fill:#243e90;fill-opacity:1;" d="M 567.273438 583.273438 L 567.273438 600.902344 C 567.273438 605.878906 563.203125 609.953125 558.273438 609.953125 L 432.886719 609.953125 C 427.953125 609.953125 423.886719 605.878906 423.886719 600.902344 L 423.886719 583.273438 Z M 567.273438 583.273438 "/><path style=" stroke:none;fill-rule:evenodd;fill:#647499;fill-opacity:1;" d="M 220.667969 104.875 L 459.953125 104.875 C 473.734375 104.875 484.996094 116.144531 484.996094 129.9375 L 484.996094 422.273438 C 484.996094 436.066406 473.734375 447.335938 459.953125 447.335938 L 220.667969 447.335938 C 206.925781 447.335938 195.667969 436.066406 195.667969 422.273438 L 195.667969 129.949219 C 195.667969 116.144531 206.925781 104.875 220.667969 104.875 Z M 220.667969 104.875 "/><path style=" stroke:none;fill-rule:evenodd;fill:#9aa3c6;fill-opacity:1;" d="M 250.9375 104.875 L 459.953125 104.875 C 473.734375 104.875 484.996094 116.144531 484.996094 129.9375 L 484.996094 387.480469 L 275.980469 387.480469 C 262.238281 387.480469 250.9375 376.171875 250.9375 362.421875 Z M 250.9375 104.875 "/><path style=" stroke:none;fill-rule:evenodd;fill:#ee366f;fill-opacity:1;" d="M 268.46875 346.0625 C 268.078125 346.105469 267.714844 346.105469 267.367188 346.105469 C 248.136719 346.105469 232.527344 330.484375 232.527344 311.242188 C 232.527344 302.425781 235.800781 294.367188 241.183594 288.230469 C 233.195312 282.609375 227.941406 273.324219 227.941406 262.808594 C 227.941406 251.023438 234.535156 240.746094 244.21875 235.488281 C 242.476562 231.613281 241.488281 227.34375 241.488281 222.796875 C 241.488281 207.027344 253.304688 193.988281 268.511719 192.046875 C 269.582031 176.597656 282.574219 164.296875 298.222656 164.296875 L 298.265625 164.296875 C 314.625 164.296875 328.046875 177.699219 328.046875 194.097656 L 328.046875 358.109375 C 328.046875 374.511719 314.613281 387.914062 298.265625 387.914062 L 298.222656 387.914062 C 281.863281 387.914062 268.46875 374.511719 268.46875 358.109375 Z M 268.46875 346.0625 "/><path style=" stroke:none;fill-rule:evenodd;fill:#ee366f;fill-opacity:1;" d="M 412.191406 346.0625 C 412.554688 346.105469 412.945312 346.105469 413.292969 346.105469 C 432.527344 346.105469 448.132812 330.484375 448.132812 311.242188 C 448.132812 302.425781 444.859375 294.367188 439.4375 288.230469 C 447.453125 282.609375 452.707031 273.324219 452.707031 262.808594 C 452.707031 251.023438 446.113281 240.746094 436.425781 235.488281 C 438.167969 231.613281 439.117188 227.34375 439.117188 222.796875 C 439.117188 207.027344 427.339844 193.988281 412.09375 192.046875 C 411.023438 176.597656 398.074219 164.296875 382.382812 164.296875 C 365.996094 164.296875 352.601562 177.699219 352.601562 194.097656 L 352.601562 358.109375 C 352.601562 374.511719 365.996094 387.914062 382.382812 387.914062 C 398.746094 387.914062 412.164062 374.511719 412.164062 358.109375 L 412.164062 346.0625 Z M 412.191406 346.0625 "/><path style=" stroke:none;fill-rule:evenodd;fill:#db322a;fill-opacity:1;" d="M 535.402344 340.09375 C 541.800781 340.09375 546.984375 345.265625 546.984375 351.683594 C 546.984375 358.097656 541.8125 363.269531 535.402344 363.269531 C 528.992188 363.269531 523.820312 358.097656 523.820312 351.683594 C 523.820312 345.265625 529.003906 340.09375 535.402344 340.09375 Z M 535.402344 340.09375 "/><path style=" stroke:none;fill-rule:evenodd;fill:#db322a;fill-opacity:1;" d="M 566.328125 304.113281 C 572.722656 304.113281 577.90625 309.289062 577.90625 315.703125 C 577.90625 322.105469 572.738281 327.292969 566.328125 327.292969 C 559.917969 327.292969 554.746094 322.117188 554.746094 315.703125 C 554.757812 309.289062 559.929688 304.113281 566.328125 304.113281 Z M 566.328125 304.113281 "/><path style=" stroke:none;fill-rule:evenodd;fill:#db322a;fill-opacity:1;" d="M 262.9375 580.277344 C 271.546875 580.277344 278.542969 587.234375 278.542969 595.851562 C 278.542969 604.472656 271.546875 611.429688 262.9375 611.429688 C 254.367188 611.429688 247.371094 604.472656 247.371094 595.851562 C 247.371094 587.234375 254.367188 580.277344 262.9375 580.277344 Z M 262.9375 580.277344 "/><path style=" stroke:none;fill-rule:evenodd;fill:#db322a;fill-opacity:1;" d="M 209.921875 580.277344 C 218.535156 580.277344 225.488281 587.234375 225.488281 595.851562 C 225.488281 604.472656 218.535156 611.429688 209.921875 611.429688 C 201.308594 611.429688 194.355469 604.472656 194.355469 595.851562 C 194.355469 587.234375 201.308594 580.277344 209.921875 580.277344 Z M 209.921875 580.277344 "/><path style=" stroke:none;fill-rule:evenodd;fill:#db322a;fill-opacity:1;" d="M 90.03125 347.246094 C 98.644531 347.246094 105.597656 354.207031 105.597656 362.824219 C 105.597656 371.441406 98.644531 378.402344 90.03125 378.402344 C 81.417969 378.402344 74.464844 371.441406 74.464844 362.824219 C 74.464844 354.207031 81.417969 347.246094 90.03125 347.246094 Z M 90.03125 347.246094 "/><path style=" stroke:none;fill-rule:evenodd;fill:#db322a;fill-opacity:1;" d="M 90.03125 260.507812 C 98.644531 260.507812 105.597656 267.507812 105.597656 276.082031 C 105.597656 284.703125 98.644531 291.703125 90.03125 291.703125 C 81.417969 291.703125 74.464844 284.703125 74.464844 276.082031 C 74.464844 267.507812 81.417969 260.507812 90.03125 260.507812 Z M 90.03125 260.507812 "/><path style=" stroke:none;fill-rule:evenodd;fill:#db322a;fill-opacity:1;" d="M 90.03125 173.78125 C 98.644531 173.78125 105.597656 180.78125 105.597656 189.398438 C 105.597656 197.976562 98.644531 204.976562 90.03125 204.976562 C 81.417969 204.976562 74.464844 197.976562 74.464844 189.398438 C 74.464844 180.78125 81.417969 173.78125 90.03125 173.78125 Z M 90.03125 173.78125 "/><g clip-rule="nonzero" clip-path="url(#6be6623af0)"><path style=" stroke:none;fill-rule:nonzero;fill:#000000;fill-opacity:1;" d="M 90.03125 165.398438 C 100.191406 165.398438 109.023438 171.757812 112.46875 181.019531 L 169.507812 181.019531 C 174.136719 181.019531 177.84375 184.726562 177.84375 189.355469 C 177.84375 193.988281 174.136719 197.738281 169.507812 197.738281 L 112.46875 197.738281 C 106.417969 213.984375 85.488281 218.683594 73.125 206.316406 C 58.074219 191.253906 68.777344 165.398438 90.03125 165.398438 Z M 95.128906 184.253906 C 90.628906 179.75 82.8125 182.941406 82.8125 189.355469 C 82.8125 195.800781 90.628906 199.007812 95.128906 194.460938 C 97.933594 191.644531 97.933594 187.070312 95.128906 184.253906 Z M 90.03125 252.125 C 100.191406 252.125 109.023438 258.484375 112.46875 267.703125 L 169.507812 267.703125 C 174.136719 267.703125 177.84375 271.453125 177.84375 276.082031 C 177.84375 280.714844 174.136719 284.464844 169.507812 284.464844 L 112.46875 284.464844 C 106.417969 300.667969 85.488281 305.425781 73.125 293 C 58.074219 277.9375 68.777344 252.125 90.03125 252.125 Z M 95.128906 270.992188 C 90.628906 266.449219 82.8125 269.683594 82.8125 276.097656 C 82.8125 282.5 90.628906 285.75 95.128906 281.203125 C 97.933594 278.386719 97.933594 273.796875 95.128906 270.992188 Z M 90.03125 338.867188 C 100.191406 338.867188 109.023438 345.226562 112.46875 354.445312 L 169.507812 354.445312 C 174.136719 354.445312 177.84375 358.195312 177.84375 362.824219 C 177.84375 367.453125 174.136719 371.164062 169.507812 371.164062 L 112.46875 371.164062 C 106.417969 387.410156 85.488281 392.109375 73.125 379.742188 C 58.074219 364.679688 68.777344 338.867188 90.03125 338.867188 Z M 95.128906 357.71875 C 90.628906 353.175781 82.8125 356.382812 82.8125 362.824219 C 82.8125 369.226562 90.628906 372.433594 95.128906 367.929688 C 97.933594 365.113281 97.933594 360.523438 95.128906 357.71875 Z M 218.296875 573.402344 C 234.492188 579.453125 239.230469 600.398438 226.871094 612.769531 C 211.820312 627.832031 185.980469 617.078125 185.980469 595.8125 C 185.980469 585.6875 192.335938 576.832031 201.546875 573.402344 L 201.546875 538.539062 L 201.589844 538.539062 C 201.589844 535.929688 202.773438 533.40625 205.03125 531.773438 L 254.601562 495.683594 L 254.601562 468.488281 C 254.601562 463.859375 258.324219 460.109375 262.9375 460.109375 C 267.550781 460.109375 271.3125 463.859375 271.3125 468.488281 L 271.3125 573.402344 C 287.546875 579.453125 292.242188 600.398438 279.882812 612.769531 C 264.832031 627.832031 238.992188 617.078125 238.992188 595.8125 C 238.992188 585.6875 245.347656 576.832031 254.601562 573.402344 L 254.601562 516.363281 L 218.296875 542.761719 Z M 215.023438 590.707031 C 210.523438 586.203125 202.730469 589.394531 202.730469 595.8125 C 202.730469 602.253906 210.507812 605.460938 215.023438 600.957031 C 217.867188 598.097656 217.867188 593.550781 215.023438 590.707031 Z M 268.035156 590.707031 C 263.535156 586.203125 255.746094 589.394531 255.746094 595.8125 C 255.746094 602.253906 263.523438 605.460938 268.035156 600.957031 C 270.878906 598.097656 270.878906 593.550781 268.035156 590.707031 Z M 566.328125 295.734375 C 584.027344 295.734375 592.988281 317.238281 580.429688 329.800781 C 570.589844 339.648438 554.035156 336.566406 548.238281 324.027344 L 493.371094 324.027344 L 493.371094 343.273438 L 517.3125 343.273438 C 523.082031 330.734375 539.667969 327.652344 549.503906 337.542969 C 562.035156 350.078125 553.101562 371.582031 535.402344 371.582031 C 527.5 371.582031 520.503906 366.953125 517.3125 359.992188 L 493.371094 359.992188 L 493.371094 422.21875 C 493.371094 423.488281 493.289062 424.671875 493.175781 425.859375 L 493.175781 548.203125 L 497.996094 548.203125 L 497.996094 401.996094 C 497.996094 395.902344 501.078125 389.222656 505.035156 384.886719 C 518.539062 369.910156 543.121094 374.484375 550.382812 393.351562 C 554.96875 405.289062 550.578125 418.816406 539.960938 425.761719 C 536.085938 428.285156 530.914062 427.226562 528.378906 423.347656 C 525.855469 419.472656 526.914062 414.296875 530.789062 411.757812 C 540.222656 405.59375 534.425781 391.007812 523.445312 392.75 C 518.789062 393.503906 514.957031 397.617188 514.75 402.039062 L 514.75 548.230469 L 518.066406 548.230469 L 518.066406 493.394531 C 518.066406 489.644531 520.589844 486.242188 524.394531 485.292969 C 575.550781 472.28125 612.050781 425.957031 612.050781 372.347656 C 612.050781 307.992188 559.902344 255.808594 495.585938 255.808594 C 494.792969 255.808594 494.039062 255.808594 493.371094 255.808594 L 493.371094 307.320312 L 548.238281 307.320312 C 551.441406 300.363281 558.425781 295.734375 566.328125 295.734375 Z M 568.625 313.402344 C 565.628906 310.402344 561.085938 314.949219 564.082031 317.949219 C 567.078125 320.945312 571.621094 316.414062 568.625 313.402344 Z M 537.644531 349.382812 C 534.675781 346.382812 530.105469 350.929688 533.101562 353.925781 C 536.097656 356.925781 540.65625 352.378906 537.644531 349.382812 Z M 438.015625 247.078125 C 432.957031 251.820312 426.242188 254.46875 419.132812 254.355469 C 414.507812 254.316406 410.839844 250.523438 410.882812 245.933594 C 410.964844 241.304688 414.714844 237.636719 419.34375 237.707031 C 432.175781 237.859375 434.351562 218.292969 425.152344 207.863281 C 421.683594 203.917969 416.902344 201.183594 411.480469 200.347656 C 407.496094 200.304688 403.539062 201.183594 399.984375 202.84375 C 396.347656 204.503906 393.03125 207.027344 390.425781 210.277344 C 387.496094 213.832031 382.285156 214.390625 378.691406 211.460938 C 375.136719 208.574219 374.578125 203.316406 377.503906 199.761719 C 383.664062 192.132812 392.234375 186.875 401.683594 184.742188 C 395.246094 171.535156 377.742188 168.453125 367.277344 178.925781 C 363.359375 182.804688 360.949219 188.171875 360.949219 194.070312 L 360.949219 358.125 C 360.949219 377.105469 384.054688 386.78125 397.53125 373.269531 C 401.40625 369.394531 403.816406 364.023438 403.816406 358.125 L 403.816406 355.195312 C 394.882812 354.570312 386.550781 350.175781 380.988281 342.898438 C 378.230469 339.214844 378.898438 334 382.5625 331.195312 C 386.242188 328.394531 391.457031 329.105469 394.257812 332.773438 C 397.769531 337.359375 404.164062 339.6875 409.417969 338.140625 C 411.441406 337.542969 411.511719 337.707031 413.292969 337.707031 C 436.289062 337.625 448.023438 310.585938 433.167969 293.710938 C 427.828125 287.660156 420.847656 284.578125 412.777344 285.886719 C 408.191406 286.597656 403.929688 283.515625 403.21875 278.972656 C 402.507812 274.425781 405.585938 270.117188 410.128906 269.402344 C 420.597656 267.746094 431.1875 270.476562 439.523438 276.796875 C 446.476562 267.980469 445.847656 255.179688 438.015625 247.078125 Z M 413.097656 337.75 C 413.183594 337.75 413.140625 337.75 413.058594 337.75 Z M 443.828125 341.78125 C 437.625 347.988281 429.570312 352.296875 420.554688 353.84375 L 420.554688 358.109375 C 420.554688 391.550781 379.707031 409.304688 355.417969 385.027344 C 348.546875 378.109375 344.238281 368.585938 344.238281 358.109375 L 344.238281 194.058594 C 344.238281 161.203125 383.859375 143.253906 408.359375 166.195312 C 413.726562 171.214844 417.683594 177.742188 419.46875 185.089844 C 439.410156 191.058594 451.382812 211.65625 446.363281 232.128906 C 464.105469 246.4375 466.082031 272.679688 450.585938 289.484375 C 460.496094 306.441406 457.695312 327.90625 443.828125 341.78125 Z M 251.757812 231.933594 C 253.613281 235.53125 257.332031 237.746094 261.320312 237.707031 C 265.90625 237.621094 269.695312 241.304688 269.738281 245.933594 C 269.777344 250.523438 266.101562 254.316406 261.515625 254.355469 C 254.40625 254.46875 247.691406 251.832031 242.589844 247.078125 C 234.769531 255.179688 234.128906 267.996094 241.085938 276.808594 C 249.417969 270.476562 260.007812 267.757812 270.476562 269.417969 C 275.019531 270.128906 278.140625 274.4375 277.429688 278.984375 C 276.675781 283.53125 272.414062 286.613281 267.871094 285.902344 C 245.824219 282.386719 231.050781 312.382812 248.636719 329.984375 C 254.085938 335.394531 260.457031 337.695312 268.46875 337.695312 C 271.199219 337.695312 273.875 339.675781 279.367188 337.820312 C 282.097656 336.914062 284.539062 335.210938 286.40625 332.800781 C 289.164062 329.117188 294.417969 328.40625 298.097656 331.222656 C 301.734375 334.027344 302.445312 339.242188 299.644531 342.925781 C 294.113281 350.203125 285.777344 354.582031 276.816406 355.222656 L 276.816406 358.152344 C 276.816406 377.132812 299.921875 386.8125 313.398438 373.296875 C 317.273438 369.421875 319.683594 364.050781 319.683594 358.152344 L 319.683594 194.058594 C 319.683594 171.367188 288.871094 164.410156 278.949219 184.726562 C 288.425781 186.859375 296.996094 192.117188 303.171875 199.746094 C 306.097656 203.300781 305.539062 208.558594 301.945312 211.445312 C 298.390625 214.375 293.136719 213.816406 290.25 210.261719 C 287.601562 207.027344 284.328125 204.488281 280.648438 202.828125 C 277.09375 201.167969 273.179688 200.304688 269.152344 200.332031 C 263.785156 201.167969 258.964844 203.886719 255.480469 207.847656 C 249.824219 214.304688 248.164062 224.417969 251.757812 231.933594 Z M 260.09375 353.84375 C 230.507812 348.824219 214.855469 315.578125 230.03125 289.484375 C 214.550781 272.679688 216.527344 246.4375 234.253906 232.128906 C 229.28125 211.65625 241.25 191.058594 261.195312 185.089844 C 268.105469 156.628906 303.824219 145.765625 325.1875 167.140625 C 332.101562 174.058594 336.40625 183.582031 336.40625 194.058594 L 336.40625 358.109375 C 336.40625 391.550781 295.5625 409.304688 271.269531 385.027344 C 264.398438 378.109375 260.09375 368.585938 260.09375 358.109375 Z M 220.667969 96.496094 L 459.953125 96.496094 C 478.363281 96.496094 493.371094 111.515625 493.371094 129.9375 L 493.371094 157.796875 L 514.148438 157.796875 C 527.820312 157.796875 538.996094 168.984375 538.996094 182.664062 L 538.996094 199.859375 C 555.902344 204.082031 571.859375 210.761719 586.757812 219.660156 L 598.921875 207.484375 C 608.59375 197.835938 624.371094 197.835938 634 207.484375 L 660.3125 233.773438 C 669.957031 243.453125 669.957031 259.222656 660.3125 268.914062 L 648.105469 281.089844 C 657.039062 296 663.671875 311.964844 667.933594 328.882812 L 685.117188 328.882812 C 698.789062 328.882812 709.925781 340.066406 709.925781 353.703125 L 709.925781 390.898438 C 709.925781 404.578125 698.789062 415.761719 685.117188 415.761719 L 667.933594 415.761719 C 663.671875 432.636719 657.039062 448.644531 648.105469 463.550781 L 660.3125 475.726562 C 669.957031 485.378906 669.957031 501.191406 660.3125 510.828125 L 634 537.15625 C 624.355469 546.808594 608.59375 546.808594 598.921875 537.15625 L 586.757812 524.941406 C 576.164062 531.300781 564.878906 536.527344 553.183594 540.558594 L 553.183594 548.1875 C 559.859375 548.1875 565.074219 547.796875 570.5625 553.292969 C 573.683594 556.414062 575.664062 560.835938 575.664062 565.589844 L 575.664062 600.886719 C 575.664062 605.671875 573.683594 610.023438 570.519531 613.1875 L 570.5625 613.1875 C 567.328125 616.421875 562.980469 618.292969 558.078125 618.292969 L 558.078125 654.269531 C 558.078125 663.835938 550.257812 671.703125 540.699219 671.703125 L 450.476562 671.703125 C 440.957031 671.703125 433.097656 663.835938 433.097656 654.269531 L 433.097656 618.292969 C 423.300781 618.292969 415.523438 610.511719 415.523438 600.902344 L 415.523438 565.605469 C 415.523438 560.824219 417.503906 556.472656 420.664062 553.304688 L 420.625 553.304688 C 426.113281 547.8125 431.328125 548.203125 438.003906 548.203125 L 438.003906 540.574219 C 426.308594 536.542969 415.007812 531.328125 404.429688 524.953125 L 392.265625 537.171875 C 382.59375 546.820312 366.832031 546.820312 357.1875 537.171875 L 330.875 510.839844 C 321.230469 501.191406 321.230469 485.390625 330.875 475.742188 L 343.082031 463.566406 L 338.625 455.660156 L 220.667969 455.660156 C 202.300781 455.660156 187.289062 440.640625 187.289062 422.21875 L 187.289062 129.949219 C 187.289062 111.527344 202.300781 96.496094 220.667969 96.496094 Z M 493.371094 174.574219 L 493.371094 239.085938 C 530.582031 238.25 565.308594 253.671875 589.765625 278.105469 C 637.179688 325.578125 641.984375 400.964844 600.832031 454.015625 C 584.234375 475.40625 561.28125 491.570312 534.816406 499.714844 L 534.816406 548.214844 L 536.433594 548.214844 L 536.433594 534.535156 L 536.476562 534.535156 C 536.476562 530.9375 538.804688 527.660156 542.398438 526.542969 C 549.671875 524.328125 556.738281 521.648438 563.566406 518.441406 C 570.242188 515.316406 576.679688 511.761719 582.882812 507.730469 C 586.15625 505.207031 590.867188 505.445312 593.863281 508.441406 L 610.726562 525.316406 C 613.890625 528.484375 619.0625 528.484375 622.183594 525.316406 L 648.453125 499.03125 C 651.617188 495.90625 651.617188 490.691406 648.453125 487.566406 L 631.617188 470.691406 C 628.886719 467.960938 628.34375 463.621094 630.515625 460.261719 C 635.882812 452.003906 640.550781 443.21875 644.382812 433.972656 C 648.0625 425.078125 650.976562 415.832031 652.996094 406.265625 C 653.554688 402.191406 657.066406 399.027344 661.289062 399.027344 L 685.105469 399.027344 C 689.523438 399.027344 693.203125 395.386719 693.203125 390.925781 L 693.203125 353.730469 C 693.203125 349.3125 689.523438 345.671875 685.105469 345.671875 L 661.289062 345.671875 L 661.289062 345.628906 C 657.414062 345.628906 653.945312 342.9375 653.105469 338.992188 C 651.058594 329.230469 648.132812 319.773438 644.382812 310.722656 C 640.632812 301.671875 636.089844 293.054688 630.878906 284.996094 C 628.355469 281.71875 628.59375 277.003906 631.632812 274.007812 L 648.464844 257.132812 C 651.628906 253.964844 651.628906 248.792969 648.464844 245.667969 L 622.195312 219.382812 C 619.074219 216.214844 613.90625 216.214844 610.742188 219.382812 L 593.878906 236.226562 C 591.148438 238.960938 586.8125 239.503906 583.453125 237.328125 C 575.230469 231.945312 566.425781 227.289062 557.183594 223.453125 C 548.292969 219.773438 539.054688 216.859375 529.492188 214.835938 C 525.425781 214.234375 522.261719 210.761719 522.261719 206.539062 L 522.261719 182.707031 C 522.261719 178.242188 518.625 174.601562 514.164062 174.601562 L 493.371094 174.601562 Z M 476.425781 451.28125 C 471.5625 454.082031 465.957031 455.671875 459.953125 455.671875 L 414.171875 455.671875 C 428.191406 469.394531 447.269531 480.664062 466.515625 485.210938 C 470.304688 486.046875 473.109375 489.394531 473.109375 493.394531 L 473.109375 548.230469 L 476.425781 548.230469 Z M 391.679688 455.671875 L 357.742188 455.671875 C 358.582031 457.011719 359.402344 458.363281 360.265625 459.703125 C 362.789062 462.980469 362.523438 467.695312 359.515625 470.691406 L 342.679688 487.566406 C 339.515625 490.691406 339.515625 495.90625 342.679688 499.03125 L 368.949219 525.316406 C 372.070312 528.484375 377.242188 528.484375 380.402344 525.316406 L 397.265625 508.441406 L 397.265625 508.484375 C 400 505.75 404.332031 505.207031 407.691406 507.382812 C 414.046875 511.539062 420.695312 515.25 427.5625 518.457031 C 434.15625 521.539062 441 524.1875 448.023438 526.363281 C 451.8125 527.15625 454.699219 530.519531 454.699219 534.550781 L 454.699219 548.230469 L 456.316406 548.230469 L 456.316406 499.726562 C 430.867188 491.847656 408.320312 476.425781 391.679688 455.671875 Z M 459.953125 113.214844 L 220.667969 113.214844 C 211.539062 113.214844 204 120.757812 204 129.9375 L 204 422.21875 C 204 431.394531 211.539062 438.9375 220.667969 438.9375 L 459.953125 438.9375 C 469.148438 438.9375 476.621094 431.351562 476.621094 422.21875 L 476.621094 129.949219 C 476.621094 120.773438 469.109375 113.214844 459.953125 113.214844 Z M 541.367188 618.304688 L 449.792969 618.304688 L 449.792969 654.285156 L 450.460938 654.953125 L 540.683594 654.953125 L 541.351562 654.285156 L 541.351562 618.304688 Z M 558.273438 564.9375 L 432.886719 564.9375 C 432.734375 564.9375 432.566406 565.019531 432.457031 565.132812 L 432.414062 565.132812 C 432.289062 565.242188 432.21875 565.410156 432.21875 565.605469 L 432.332031 601.265625 L 432.886719 601.585938 L 558.273438 601.585938 C 558.425781 601.585938 558.59375 601.5 558.703125 601.390625 L 558.746094 601.390625 C 558.855469 601.265625 558.941406 601.109375 558.941406 600.914062 L 558.828125 565.257812 Z M 558.273438 564.9375 "/></g></g></svg>