<svg xmlns="http://www.w3.org/2000/svg" xmlns:xlink="http://www.w3.org/1999/xlink" width="1024" zoomAndPan="magnify" viewBox="0 0 768 767.999994" height="1024" preserveAspectRatio="xMidYMid meet" version="1.2"><defs><clipPath id="bf91d78a39"><path d="M 482 482 L 680.078125 482 L 680.078125 680.078125 L 482 680.078125 Z M 482 482 "/></clipPath><clipPath id="9a3489e7af"><path d="M 482 87.578125 L 680.078125 87.578125 L 680.078125 286 L 482 286 Z M 482 87.578125 "/></clipPath><clipPath id="5bda9e2b58"><path d="M 87.578125 482 L 286 482 L 286 680.078125 L 87.578125 680.078125 Z M 87.578125 482 "/></clipPath><clipPath id="0784996656"><path d="M 87.578125 87.578125 L 286 87.578125 L 286 286 L 87.578125 286 Z M 87.578125 87.578125 "/></clipPath></defs><g id="f043e4ef1c"><rect x="0" width="768" y="0" height="767.999994" style="fill:#ffffff;fill-opacity:1;stroke:none;"/><rect x="0" width="768" y="0" height="767.999994" style="fill:#ffffff;fill-opacity:1;stroke:none;"/><path style=" stroke:none;fill-rule:nonzero;fill:#6caae1;fill-opacity:1;" d="M 275.203125 512.203125 L 275.203125 591.203125 L 97.453125 591.203125 L 97.453125 512.203125 C 97.453125 501.363281 106.324219 492.453125 117.203125 492.453125 L 255.453125 492.453125 C 262.046875 492.453125 267.910156 495.730469 271.539062 500.746094 C 273.929688 503.984375 275.203125 507.960938 275.203125 512.203125 "/><path style=" stroke:none;fill-rule:nonzero;fill:#aaa8af;fill-opacity:1;" d="M 225.828125 670.203125 L 146.828125 670.203125 L 156.703125 630.703125 L 215.953125 630.703125 L 225.828125 670.203125 "/><path style=" stroke:none;fill-rule:nonzero;fill:#aaa8af;fill-opacity:1;" d="M 275.203125 591.203125 L 275.203125 610.953125 C 275.203125 621.832031 266.328125 630.703125 255.453125 630.703125 L 117.203125 630.703125 C 106.324219 630.703125 97.453125 621.832031 97.453125 610.953125 L 97.453125 591.203125 L 275.203125 591.203125 "/><path style=" stroke:none;fill-rule:nonzero;fill:#f68c12;fill-opacity:1;" d="M 166.578125 364.078125 C 177.453125 364.078125 186.328125 372.988281 186.328125 383.828125 C 186.328125 394.667969 177.453125 403.578125 166.578125 403.578125 C 155.699219 403.578125 146.828125 394.667969 146.828125 383.828125 C 146.828125 372.988281 155.699219 364.078125 166.578125 364.078125 "/><path style=" stroke:none;fill-rule:nonzero;fill:#aaa8af;fill-opacity:1;" d="M 670.203125 591.203125 L 670.203125 610.953125 C 670.203125 621.832031 661.292969 630.703125 650.453125 630.703125 L 512.203125 630.703125 C 501.363281 630.703125 492.453125 621.832031 492.453125 610.953125 L 492.453125 591.203125 L 670.203125 591.203125 "/><path style=" stroke:none;fill-rule:nonzero;fill:#aaa8af;fill-opacity:1;" d="M 620.828125 670.203125 L 541.828125 670.203125 L 551.703125 630.703125 L 610.953125 630.703125 L 620.828125 670.203125 "/><path style=" stroke:none;fill-rule:nonzero;fill:#6caae1;fill-opacity:1;" d="M 670.203125 512.203125 L 670.203125 591.203125 L 492.453125 591.203125 L 492.453125 512.203125 C 492.453125 501.363281 501.363281 492.453125 512.203125 492.453125 L 650.453125 492.453125 C 657.046875 492.453125 662.910156 495.730469 666.539062 500.746094 C 668.929688 503.984375 670.203125 507.960938 670.203125 512.203125 "/><path style=" stroke:none;fill-rule:nonzero;fill:#f68c12;fill-opacity:1;" d="M 601.078125 364.078125 C 611.917969 364.078125 620.828125 372.988281 620.828125 383.828125 C 620.828125 394.667969 611.917969 403.578125 601.078125 403.578125 C 590.238281 403.578125 581.328125 394.667969 581.328125 383.828125 C 581.328125 372.988281 590.238281 364.078125 601.078125 364.078125 "/><path style=" stroke:none;fill-rule:nonzero;fill:#84848e;fill-opacity:1;" d="M 492.453125 373.953125 L 452.953125 373.953125 L 455.421875 354.203125 L 461.746094 303.632812 C 462.324219 298.695312 466.570312 294.953125 471.507812 294.953125 L 473.898438 294.953125 C 478.835938 294.953125 483.078125 298.695312 483.65625 303.632812 L 489.984375 354.203125 L 492.453125 373.953125 "/><path style=" stroke:none;fill-rule:nonzero;fill:#aaa8af;fill-opacity:1;" d="M 512.203125 383.828125 L 512.203125 443.078125 C 512.203125 448.515625 507.765625 452.953125 502.328125 452.953125 L 265.328125 452.953125 C 259.886719 452.953125 255.453125 448.515625 255.453125 443.078125 L 255.453125 383.828125 C 255.453125 378.386719 259.886719 373.953125 265.328125 373.953125 L 502.328125 373.953125 C 507.765625 373.953125 512.203125 378.386719 512.203125 383.828125 "/><path style=" stroke:none;fill-rule:nonzero;fill:#84848e;fill-opacity:1;" d="M 314.703125 373.953125 L 275.203125 373.953125 L 277.671875 354.203125 L 283.996094 303.632812 C 284.574219 298.695312 288.820312 294.953125 293.757812 294.953125 L 296.148438 294.953125 C 301.085938 294.953125 305.328125 298.695312 305.90625 303.632812 L 312.234375 354.203125 L 314.703125 373.953125 "/><path style=" stroke:none;fill-rule:nonzero;fill:#f68c12;fill-opacity:1;" d="M 383.828125 156.703125 C 394.667969 156.703125 403.578125 165.613281 403.578125 176.453125 C 403.578125 187.292969 394.667969 196.203125 383.828125 196.203125 C 372.949219 196.203125 364.078125 187.292969 364.078125 176.453125 C 364.078125 165.613281 372.949219 156.703125 383.828125 156.703125 "/><path style=" stroke:none;fill-rule:nonzero;fill:#6caae1;fill-opacity:1;" d="M 275.203125 117.203125 L 275.203125 196.203125 L 97.453125 196.203125 L 97.453125 117.203125 C 97.453125 106.363281 106.324219 97.453125 117.203125 97.453125 L 255.453125 97.453125 C 262.046875 97.453125 267.910156 100.730469 271.539062 105.746094 C 273.929688 108.984375 275.203125 112.960938 275.203125 117.203125 "/><path style=" stroke:none;fill-rule:nonzero;fill:#aaa8af;fill-opacity:1;" d="M 225.828125 275.203125 L 146.828125 275.203125 L 156.703125 235.703125 L 215.953125 235.703125 L 225.828125 275.203125 "/><path style=" stroke:none;fill-rule:nonzero;fill:#aaa8af;fill-opacity:1;" d="M 275.203125 196.203125 L 275.203125 215.953125 C 275.203125 226.792969 266.328125 235.703125 255.453125 235.703125 L 117.203125 235.703125 C 106.324219 235.703125 97.453125 226.792969 97.453125 215.953125 L 97.453125 196.203125 L 275.203125 196.203125 "/><path style=" stroke:none;fill-rule:nonzero;fill:#aaa8af;fill-opacity:1;" d="M 670.203125 196.203125 L 670.203125 215.953125 C 670.203125 226.792969 661.292969 235.703125 650.453125 235.703125 L 512.203125 235.703125 C 501.363281 235.703125 492.453125 226.792969 492.453125 215.953125 L 492.453125 196.203125 L 670.203125 196.203125 "/><path style=" stroke:none;fill-rule:nonzero;fill:#6caae1;fill-opacity:1;" d="M 670.203125 117.203125 L 670.203125 196.203125 L 492.453125 196.203125 L 492.453125 117.203125 C 492.453125 106.363281 501.363281 97.453125 512.203125 97.453125 L 650.453125 97.453125 C 657.046875 97.453125 662.910156 100.730469 666.539062 105.746094 C 668.929688 108.984375 670.203125 112.960938 670.203125 117.203125 "/><path style=" stroke:none;fill-rule:nonzero;fill:#f68c12;fill-opacity:1;" d="M 383.828125 571.453125 C 372.910156 571.453125 364.078125 580.285156 364.078125 591.203125 C 364.078125 602.117188 372.910156 610.953125 383.828125 610.953125 C 394.742188 610.953125 403.578125 602.117188 403.578125 591.203125 C 403.578125 580.285156 394.742188 571.453125 383.828125 571.453125 "/><path style=" stroke:none;fill-rule:nonzero;fill:#84848e;fill-opacity:1;" d="M 220.890625 255.453125 L 151.765625 255.453125 L 156.703125 235.703125 L 215.953125 235.703125 L 220.890625 255.453125 "/><path style=" stroke:none;fill-rule:nonzero;fill:#aaa8af;fill-opacity:1;" d="M 620.828125 275.203125 L 541.828125 275.203125 L 551.703125 235.703125 L 610.953125 235.703125 L 620.828125 275.203125 "/><path style=" stroke:none;fill-rule:nonzero;fill:#84848e;fill-opacity:1;" d="M 615.890625 255.453125 L 546.765625 255.453125 L 551.703125 235.703125 L 610.953125 235.703125 L 615.890625 255.453125 "/><path style=" stroke:none;fill-rule:nonzero;fill:#84848e;fill-opacity:1;" d="M 220.890625 650.453125 L 151.765625 650.453125 L 156.703125 630.703125 L 215.953125 630.703125 L 220.890625 650.453125 "/><path style=" stroke:none;fill-rule:nonzero;fill:#84848e;fill-opacity:1;" d="M 615.890625 650.453125 L 546.765625 650.453125 L 551.703125 630.703125 L 610.953125 630.703125 L 615.890625 650.453125 "/><path style=" stroke:none;fill-rule:nonzero;fill:#71707e;fill-opacity:1;" d="M 314.703125 373.953125 L 275.203125 373.953125 L 277.671875 354.203125 L 312.234375 354.203125 L 314.703125 373.953125 "/><path style=" stroke:none;fill-rule:nonzero;fill:#71707e;fill-opacity:1;" d="M 492.453125 373.953125 L 452.953125 373.953125 L 455.421875 354.203125 L 489.984375 354.203125 L 492.453125 373.953125 "/><path style=" stroke:none;fill-rule:nonzero;fill:#5798d8;fill-opacity:1;" d="M 275.203125 117.203125 L 275.203125 196.203125 L 178.535156 196.203125 C 203.105469 183.046875 243.417969 155.621094 271.539062 105.746094 C 273.929688 108.984375 275.203125 112.960938 275.203125 117.203125 "/><path style=" stroke:none;fill-rule:nonzero;fill:#5798d8;fill-opacity:1;" d="M 670.203125 117.203125 L 670.203125 196.203125 L 573.535156 196.203125 C 598.105469 183.046875 638.417969 155.621094 666.539062 105.746094 C 668.929688 108.984375 670.203125 112.960938 670.203125 117.203125 "/><path style=" stroke:none;fill-rule:nonzero;fill:#5798d8;fill-opacity:1;" d="M 275.203125 512.203125 L 275.203125 591.203125 L 178.535156 591.203125 C 203.105469 578.046875 243.417969 550.621094 271.539062 500.746094 C 273.929688 503.984375 275.203125 507.960938 275.203125 512.203125 "/><path style=" stroke:none;fill-rule:nonzero;fill:#5798d8;fill-opacity:1;" d="M 670.203125 512.203125 L 670.203125 591.203125 L 573.535156 591.203125 C 598.105469 578.046875 638.417969 550.621094 666.539062 500.746094 C 668.929688 503.984375 670.203125 507.960938 670.203125 512.203125 "/><g clip-rule="nonzero" clip-path="url(#bf91d78a39)"><path style=" stroke:none;fill-rule:nonzero;fill:#100f0d;fill-opacity:1;" d="M 650.453125 620.828125 L 512.203125 620.828125 C 506.761719 620.828125 502.328125 616.390625 502.328125 610.953125 L 502.328125 601.078125 L 660.328125 601.078125 L 660.328125 610.953125 C 660.328125 616.390625 655.890625 620.828125 650.453125 620.828125 Z M 608.175781 660.328125 L 554.480469 660.328125 L 559.417969 640.578125 L 603.238281 640.578125 Z M 512.203125 502.328125 L 650.453125 502.328125 C 655.890625 502.328125 660.328125 506.761719 660.328125 512.203125 L 660.328125 581.328125 L 502.328125 581.328125 L 502.328125 512.203125 C 502.328125 506.761719 506.761719 502.328125 512.203125 502.328125 Z M 650.453125 482.578125 L 512.203125 482.578125 C 495.847656 482.578125 482.578125 495.847656 482.578125 512.203125 L 482.578125 610.953125 C 482.578125 627.308594 495.847656 640.578125 512.203125 640.578125 L 539.050781 640.578125 L 534.113281 660.328125 L 512.203125 660.328125 L 512.203125 680.078125 L 650.453125 680.078125 L 650.453125 660.328125 L 628.542969 660.328125 L 623.605469 640.578125 L 650.453125 640.578125 C 666.808594 640.578125 680.078125 627.308594 680.078125 610.953125 L 680.078125 512.203125 C 680.078125 495.847656 666.808594 482.578125 650.453125 482.578125 "/></g><g clip-rule="nonzero" clip-path="url(#9a3489e7af)"><path style=" stroke:none;fill-rule:nonzero;fill:#100f0d;fill-opacity:1;" d="M 650.453125 225.828125 L 512.203125 225.828125 C 506.761719 225.828125 502.328125 221.390625 502.328125 215.953125 L 502.328125 206.078125 L 660.328125 206.078125 L 660.328125 215.953125 C 660.328125 221.390625 655.890625 225.828125 650.453125 225.828125 Z M 608.175781 265.328125 L 554.480469 265.328125 L 559.417969 245.578125 L 603.238281 245.578125 Z M 512.203125 107.328125 L 650.453125 107.328125 C 655.890625 107.328125 660.328125 111.761719 660.328125 117.203125 L 660.328125 186.328125 L 502.328125 186.328125 L 502.328125 117.203125 C 502.328125 111.761719 506.761719 107.328125 512.203125 107.328125 Z M 650.453125 87.578125 L 512.203125 87.578125 C 495.847656 87.578125 482.578125 100.847656 482.578125 117.203125 L 482.578125 215.953125 C 482.578125 232.308594 495.847656 245.578125 512.203125 245.578125 L 539.050781 245.578125 L 534.113281 265.328125 L 512.203125 265.328125 L 512.203125 285.078125 L 650.453125 285.078125 L 650.453125 265.328125 L 628.542969 265.328125 L 623.605469 245.578125 L 650.453125 245.578125 C 666.808594 245.578125 680.078125 232.308594 680.078125 215.953125 L 680.078125 117.203125 C 680.078125 100.847656 666.808594 87.578125 650.453125 87.578125 "/></g><g clip-rule="nonzero" clip-path="url(#5bda9e2b58)"><path style=" stroke:none;fill-rule:nonzero;fill:#100f0d;fill-opacity:1;" d="M 255.453125 620.828125 L 117.203125 620.828125 C 111.761719 620.828125 107.328125 616.390625 107.328125 610.953125 L 107.328125 601.078125 L 265.328125 601.078125 L 265.328125 610.953125 C 265.328125 616.390625 260.890625 620.828125 255.453125 620.828125 Z M 213.175781 660.328125 L 159.480469 660.328125 L 164.417969 640.578125 L 208.238281 640.578125 Z M 117.203125 502.328125 L 255.453125 502.328125 C 260.890625 502.328125 265.328125 506.761719 265.328125 512.203125 L 265.328125 581.328125 L 107.328125 581.328125 L 107.328125 512.203125 C 107.328125 506.761719 111.761719 502.328125 117.203125 502.328125 Z M 255.453125 482.578125 L 117.203125 482.578125 C 100.847656 482.578125 87.578125 495.847656 87.578125 512.203125 L 87.578125 610.953125 C 87.578125 627.308594 100.847656 640.578125 117.203125 640.578125 L 144.050781 640.578125 L 139.113281 660.328125 L 117.203125 660.328125 L 117.203125 680.078125 L 255.453125 680.078125 L 255.453125 660.328125 L 233.542969 660.328125 L 228.605469 640.578125 L 255.453125 640.578125 C 271.808594 640.578125 285.078125 627.308594 285.078125 610.953125 L 285.078125 512.203125 C 285.078125 495.847656 271.808594 482.578125 255.453125 482.578125 "/></g><g clip-rule="nonzero" clip-path="url(#0784996656)"><path style=" stroke:none;fill-rule:nonzero;fill:#100f0d;fill-opacity:1;" d="M 117.203125 107.328125 L 255.453125 107.328125 C 260.890625 107.328125 265.328125 111.761719 265.328125 117.203125 L 265.328125 186.328125 L 107.328125 186.328125 L 107.328125 117.203125 C 107.328125 111.761719 111.761719 107.328125 117.203125 107.328125 Z M 255.453125 225.828125 L 117.203125 225.828125 C 111.761719 225.828125 107.328125 221.390625 107.328125 215.953125 L 107.328125 206.078125 L 265.328125 206.078125 L 265.328125 215.953125 C 265.328125 221.390625 260.890625 225.828125 255.453125 225.828125 Z M 213.175781 265.328125 L 159.480469 265.328125 L 164.417969 245.578125 L 208.238281 245.578125 Z M 117.203125 245.578125 L 144.050781 245.578125 L 139.113281 265.328125 L 117.203125 265.328125 L 117.203125 285.078125 L 255.453125 285.078125 L 255.453125 265.328125 L 233.542969 265.328125 L 228.605469 245.578125 L 255.453125 245.578125 C 271.808594 245.578125 285.078125 232.308594 285.078125 215.953125 L 285.078125 117.203125 C 285.078125 100.847656 271.808594 87.578125 255.453125 87.578125 L 117.203125 87.578125 C 100.847656 87.578125 87.578125 100.847656 87.578125 117.203125 L 87.578125 215.953125 C 87.578125 232.308594 100.847656 245.578125 117.203125 245.578125 "/></g><path style=" stroke:none;fill-rule:nonzero;fill:#100f0d;fill-opacity:1;" d="M 383.828125 166.578125 C 389.265625 166.578125 393.703125 171.011719 393.703125 176.453125 C 393.703125 181.890625 389.265625 186.328125 383.828125 186.328125 C 378.386719 186.328125 373.953125 181.890625 373.953125 176.453125 C 373.953125 171.011719 378.386719 166.578125 383.828125 166.578125 Z M 373.953125 204.265625 L 373.953125 235.703125 L 393.703125 235.703125 L 393.703125 204.265625 C 402.074219 201.292969 408.667969 194.699219 411.640625 186.328125 L 462.828125 186.328125 L 462.828125 166.578125 L 411.640625 166.578125 C 407.550781 155.121094 396.671875 146.828125 383.828125 146.828125 C 370.980469 146.828125 360.105469 155.121094 356.015625 166.578125 L 304.828125 166.578125 L 304.828125 186.328125 L 356.015625 186.328125 C 358.984375 194.699219 365.582031 201.292969 373.953125 204.265625 "/><path style=" stroke:none;fill-rule:nonzero;fill:#100f0d;fill-opacity:1;" d="M 166.578125 373.953125 C 172.015625 373.953125 176.453125 378.386719 176.453125 383.828125 C 176.453125 389.265625 172.015625 393.703125 166.578125 393.703125 C 161.136719 393.703125 156.703125 389.265625 156.703125 383.828125 C 156.703125 378.386719 161.136719 373.953125 166.578125 373.953125 Z M 176.453125 462.828125 L 176.453125 411.640625 C 184.824219 408.667969 191.417969 402.074219 194.390625 393.703125 L 225.828125 393.703125 L 225.828125 373.953125 L 194.390625 373.953125 C 191.417969 365.582031 184.824219 358.984375 176.453125 356.015625 L 176.453125 304.828125 L 156.703125 304.828125 L 156.703125 356.015625 C 145.246094 360.105469 136.953125 370.980469 136.953125 383.828125 C 136.953125 396.671875 145.246094 407.550781 156.703125 411.640625 L 156.703125 462.828125 L 176.453125 462.828125 "/><path style=" stroke:none;fill-rule:nonzero;fill:#100f0d;fill-opacity:1;" d="M 601.078125 393.703125 C 595.636719 393.703125 591.203125 389.265625 591.203125 383.828125 C 591.203125 378.386719 595.636719 373.953125 601.078125 373.953125 C 606.515625 373.953125 610.953125 378.386719 610.953125 383.828125 C 610.953125 389.265625 606.515625 393.703125 601.078125 393.703125 Z M 591.203125 304.828125 L 591.203125 356.015625 C 582.832031 358.984375 576.234375 365.582031 573.265625 373.953125 L 541.828125 373.953125 L 541.828125 393.703125 L 573.265625 393.703125 C 576.234375 402.074219 582.832031 408.667969 591.203125 411.640625 L 591.203125 462.828125 L 610.953125 462.828125 L 610.953125 411.640625 C 622.410156 407.550781 630.703125 396.671875 630.703125 383.828125 C 630.703125 370.980469 622.410156 360.105469 610.953125 356.015625 L 610.953125 304.828125 L 591.203125 304.828125 "/><path style=" stroke:none;fill-rule:nonzero;fill:#100f0d;fill-opacity:1;" d="M 383.828125 601.078125 C 378.386719 601.078125 373.953125 596.640625 373.953125 591.203125 C 373.953125 585.761719 378.386719 581.328125 383.828125 581.328125 C 389.265625 581.328125 393.703125 585.761719 393.703125 591.203125 C 393.703125 596.640625 389.265625 601.078125 383.828125 601.078125 Z M 393.703125 563.390625 L 393.703125 531.953125 L 373.953125 531.953125 L 373.953125 563.390625 C 365.582031 566.359375 358.984375 572.957031 356.015625 581.328125 L 304.828125 581.328125 L 304.828125 601.078125 L 356.015625 601.078125 C 360.105469 612.535156 370.980469 620.828125 383.828125 620.828125 C 396.671875 620.828125 407.550781 612.535156 411.640625 601.078125 L 462.828125 601.078125 L 462.828125 581.328125 L 411.640625 581.328125 C 408.667969 572.957031 402.074219 566.359375 393.703125 563.390625 "/><path style=" stroke:none;fill-rule:nonzero;fill:#100f0d;fill-opacity:1;" d="M 443.078125 423.328125 L 462.828125 423.328125 L 462.828125 403.578125 L 443.078125 403.578125 L 443.078125 423.328125 "/><path style=" stroke:none;fill-rule:nonzero;fill:#100f0d;fill-opacity:1;" d="M 403.578125 423.328125 L 423.328125 423.328125 L 423.328125 403.578125 L 403.578125 403.578125 L 403.578125 423.328125 "/><path style=" stroke:none;fill-rule:nonzero;fill:#100f0d;fill-opacity:1;" d="M 304.828125 423.328125 L 324.578125 423.328125 L 324.578125 403.578125 L 304.828125 403.578125 L 304.828125 423.328125 "/><path style=" stroke:none;fill-rule:nonzero;fill:#100f0d;fill-opacity:1;" d="M 502.328125 443.078125 L 265.328125 443.078125 L 265.328125 383.828125 L 502.328125 383.828125 Z M 293.757812 304.828125 L 296.148438 304.828125 L 303.554688 364.078125 L 286.351562 364.078125 Z M 471.507812 304.828125 L 473.898438 304.828125 L 481.304688 364.078125 L 464.101562 364.078125 Z M 502.328125 364.078125 L 501.132812 364.078125 L 493.417969 302.359375 C 492.257812 292.484375 483.773438 285.078125 473.898438 285.078125 L 471.507812 285.078125 C 461.632812 285.078125 453.144531 292.484375 451.988281 302.359375 L 444.273438 364.078125 L 323.382812 364.078125 L 315.703125 302.359375 C 314.507812 292.484375 306.023438 285.078125 296.148438 285.078125 L 293.757812 285.078125 C 283.882812 285.078125 275.394531 292.484375 274.199219 302.359375 L 266.523438 364.078125 L 265.328125 364.078125 C 254.449219 364.078125 245.578125 372.988281 245.578125 383.828125 L 245.578125 443.078125 C 245.578125 453.917969 254.449219 462.828125 265.328125 462.828125 L 502.328125 462.828125 C 513.167969 462.828125 522.078125 453.917969 522.078125 443.078125 L 522.078125 383.828125 C 522.078125 372.988281 513.167969 364.078125 502.328125 364.078125 "/><path style=" stroke:none;fill-rule:nonzero;fill:#100f0d;fill-opacity:1;" d="M 172.363281 162.488281 L 186.328125 176.453125 L 200.289062 162.488281 C 192.613281 154.773438 180.039062 154.773438 172.363281 162.488281 "/><path style=" stroke:none;fill-rule:nonzero;fill:#100f0d;fill-opacity:1;" d="M 207.273438 155.507812 L 221.238281 141.542969 C 201.988281 122.292969 170.664062 122.292969 151.417969 141.542969 L 165.382812 155.507812 C 176.914062 143.972656 195.738281 143.972656 207.273438 155.507812 "/><path style=" stroke:none;fill-rule:nonzero;fill:#100f0d;fill-opacity:1;" d="M 567.363281 162.488281 L 581.328125 176.453125 L 595.289062 162.488281 C 587.613281 154.773438 575.039062 154.773438 567.363281 162.488281 "/><path style=" stroke:none;fill-rule:nonzero;fill:#100f0d;fill-opacity:1;" d="M 602.273438 155.507812 L 616.238281 141.542969 C 606.941406 132.207031 594.519531 127.078125 581.328125 127.078125 C 568.132812 127.078125 555.714844 132.207031 546.417969 141.542969 L 560.382812 155.507812 C 571.566406 144.320312 591.085938 144.320312 602.273438 155.507812 "/><path style=" stroke:none;fill-rule:nonzero;fill:#100f0d;fill-opacity:1;" d="M 567.363281 557.488281 L 581.328125 571.453125 L 595.289062 557.488281 C 587.613281 549.773438 575.039062 549.773438 567.363281 557.488281 "/><path style=" stroke:none;fill-rule:nonzero;fill:#100f0d;fill-opacity:1;" d="M 602.273438 550.507812 L 616.238281 536.542969 C 606.941406 527.207031 594.519531 522.078125 581.328125 522.078125 C 568.132812 522.078125 555.714844 527.207031 546.417969 536.542969 L 560.382812 550.507812 C 571.566406 539.320312 591.085938 539.320312 602.273438 550.507812 "/><path style=" stroke:none;fill-rule:nonzero;fill:#100f0d;fill-opacity:1;" d="M 172.363281 557.488281 L 186.328125 571.453125 L 200.289062 557.488281 C 192.613281 549.773438 180.039062 549.773438 172.363281 557.488281 "/><path style=" stroke:none;fill-rule:nonzero;fill:#100f0d;fill-opacity:1;" d="M 207.273438 550.507812 L 221.238281 536.542969 C 201.988281 517.292969 170.664062 517.292969 151.417969 536.542969 L 165.382812 550.507812 C 176.914062 538.972656 195.738281 538.972656 207.273438 550.507812 "/></g></svg>